<svg width="48" height="48" viewBox="0 0 48 48" fill="none" xmlns="http://www.w3.org/2000/svg">
<path fill-rule="evenodd" clip-rule="evenodd" d="M6 6C6 2.686 8.688 0 12 0C15.312 0 18 2.686 18 6C18 9.314 15.312 12 12 12C8.688 12 6 9.314 6 6ZM14 6C14 4.898 13.104 4 12 4C10.896 4 10 4.898 10 6C10 7.102 10.896 8 12 8C13.104 8 14 7.102 14 6ZM44 24C44 22.896 43.104 22 42 22C40.896 22 40 22.896 40 24C40 25.102 40.896 26 42 26C43.104 26 44 25.104 44 24ZM12 40C13.104 40 14 40.898 14 42C14 43.102 13.104 44 12 44C10.896 44 10 43.102 10 42C10 40.898 10.896 40 12 40ZM42 18C38.688 18 36 20.686 36 24C36 27.314 38.688 30 42 30C45.312 30 48 27.314 48 24C48 20.686 45.312 18 42 18ZM6 42C6 38.686 8.686 36 12 36C15.312 36 18 38.686 18 42C18 45.314 15.312 48 12 48C8.686 48 6 45.314 6 42Z" fill="#C86DD7"/>
<path fill-rule="evenodd" clip-rule="evenodd" d="M21.176 2.042L22 2C30.562 2 37.962 6.9 41.6 14.042C40.166 14.1 38.82 14.462 37.604 15.064C34.494 9.658 28.672 6 22 6C22 4.594 21.702 3.256 21.176 2.042ZM41.6 33.958C37.962 41.1 30.562 46 22 46L21.176 45.958C21.702 44.744 22 43.406 22 42C28.672 42 34.494 38.342 37.604 32.936C38.82 33.54 40.166 33.902 41.6 33.958ZM0 24C0 28.57 1.394 32.812 3.78 36.33C4.562 35.198 5.582 34.252 6.754 33.524C5.02 30.758 4 27.5 4 24C4 20.5 5.02 17.242 6.754 14.476C5.582 13.748 4.564 12.802 3.78 11.67C1.394 15.188 0 19.43 0 24Z" fill="#FFC300"/>
</svg>
